<svg version="1.1"
      xmlns="http://www.w3.org/2000/svg"
      xmlns:xlink="http://www.w3.org/1999/xlink"  id="snapshot-72293" width="250" height="250" viewBox="0 0 250 250"><desc>This image was made on Patterninja.com</desc><defs>
<!-- image 88953 -->
<g id="transformed-88953" data-image="88953" transform="translate(-125, -125) rotate(0, 125, 125)"><g><svg version="1.1" width="250px" height="250px" viewBox="0 0 250 250"><g id="original-88953"><svg xmlns="http://www.w3.org/2000/svg" id="Icons" viewBox="0 0 32 32" xmlns:xlink="http://www.w3.org/1999/xlink" version="1.1" preserveAspectRatio="xMidYMid meet">
  <path d="M27 28h-8.1c-1.2 0-2.3-.5-3.2-1.3L3 14l7-8c0 3.9 4.1 8 8 8h1c-.1 4.5 1.6 7.8 6 9.2.3.1.5.2.8.2 1.2.3 2 1.6 1.7 2.8L27 28z" fill="rgba(103, 103, 103, 0.0755813953488372)" stroke="none"/>
  <path d="M1 16l13.7 13.7c.8.8 2 1.3 3.2 1.3H27" fill="rgba(103, 103, 103, 0.0755813953488372)" stroke="none"/>
  <circle cx="10.5" cy="15.5" r="1.5" fill="rgba(103, 103, 103, 0.0755813953488372)" stroke="none"/>
  <path d="M15 19h4.5" fill="rgba(103, 103, 103, 0.0755813953488372)" stroke="none"/>
  <path d="M17 22h5.5" fill="rgba(103, 103, 103, 0.0755813953488372)" stroke="none"/>
  <path d="M28 1l-7.3 7.3C19 10 18.4 12.4 19 14.7" fill="rgba(103, 103, 103, 0.0755813953488372)" stroke="none"/>
  <path d="M10 7c1.9-.6 3.6-2 4.6-3.7L16 1" fill="rgba(103, 103, 103, 0.0755813953488372)" stroke="none"/>
</svg>
</g></svg></g></g>
<!-- /image 88953 -->
</defs><rect x="0" y="0" width="250" height="250" fill="rgba(255, 255, 255, 1)"></rect><use xlink:href="#transformed-88953" transform="translate(-250, -250)"></use><use xlink:href="#transformed-88953" transform="translate(0, -250)"></use><use xlink:href="#transformed-88953" transform="translate(250, -250)"></use><use xlink:href="#transformed-88953" transform="translate(-250, 0)"></use><use xlink:href="#transformed-88953" transform="translate(0, 0)"></use><use xlink:href="#transformed-88953" transform="translate(250, 0)"></use><use xlink:href="#transformed-88953" transform="translate(-250, 250)"></use><use xlink:href="#transformed-88953" transform="translate(0, 250)"></use><use xlink:href="#transformed-88953" transform="translate(250, 250)"></use></svg>