<svg width="434" height="177" viewBox="0 0 434 177" fill="none" xmlns="http://www.w3.org/2000/svg">
<g filter="url(#filter0_d)">
<rect x="7" y="14" width="416" height="132" rx="4" fill="#6146EA" fill-opacity="0.67"/>
<rect x="8" y="15" width="414" height="130" rx="3" stroke="black" stroke-width="2"/>
</g>
<path d="M49.648 97L42.676 85.03H38.056V97H34.234V67.726H43.684C45.896 67.726 47.758 68.104 49.27 68.86C50.81 69.616 51.958 70.638 52.714 71.926C53.47 73.214 53.848 74.684 53.848 76.336C53.848 78.352 53.26 80.13 52.084 81.67C50.936 83.21 49.2 84.232 46.876 84.736L54.226 97H49.648ZM38.056 81.964H43.684C45.756 81.964 47.31 81.46 48.346 80.452C49.382 79.416 49.9 78.044 49.9 76.336C49.9 74.6 49.382 73.256 48.346 72.304C47.338 71.352 45.784 70.876 43.684 70.876H38.056V81.964ZM80.1987 73.984V97H76.3767V93.598C75.6487 94.774 74.6267 95.698 73.3107 96.37C72.0227 97.014 70.5947 97.336 69.0267 97.336C67.2347 97.336 65.6247 96.972 64.1967 96.244C62.7687 95.488 61.6347 94.368 60.7947 92.884C59.9827 91.4 59.5767 89.594 59.5767 87.466V73.984H63.3567V86.962C63.3567 89.23 63.9307 90.98 65.0787 92.212C66.2267 93.416 67.7947 94.018 69.7827 94.018C71.8267 94.018 73.4367 93.388 74.6127 92.128C75.7887 90.868 76.3767 89.034 76.3767 86.626V73.984H80.1987ZM97.866 73.564C100.666 73.564 102.934 74.418 104.67 76.126C106.406 77.806 107.274 80.242 107.274 83.434V97H103.494V83.98C103.494 81.684 102.92 79.934 101.772 78.73C100.624 77.498 99.056 76.882 97.068 76.882C95.052 76.882 93.442 77.512 92.238 78.772C91.062 80.032 90.474 81.866 90.474 84.274V97H86.652V73.984H90.474V77.26C91.23 76.084 92.252 75.174 93.54 74.53C94.856 73.886 96.298 73.564 97.866 73.564ZM124.731 73.564C127.531 73.564 129.799 74.418 131.535 76.126C133.271 77.806 134.139 80.242 134.139 83.434V97H130.359V83.98C130.359 81.684 129.785 79.934 128.637 78.73C127.489 77.498 125.921 76.882 123.933 76.882C121.917 76.882 120.307 77.512 119.103 78.772C117.927 80.032 117.339 81.866 117.339 84.274V97H113.517V73.984H117.339V77.26C118.095 76.084 119.117 75.174 120.405 74.53C121.721 73.886 123.163 73.564 124.731 73.564ZM161.382 84.61C161.382 85.338 161.34 86.108 161.256 86.92H142.86C143 89.188 143.77 90.966 145.17 92.254C146.598 93.514 148.32 94.144 150.336 94.144C151.988 94.144 153.36 93.766 154.452 93.01C155.572 92.226 156.356 91.19 156.804 89.902H160.92C160.304 92.114 159.072 93.92 157.224 95.32C155.376 96.692 153.08 97.378 150.336 97.378C148.152 97.378 146.192 96.888 144.456 95.908C142.748 94.928 141.404 93.542 140.424 91.75C139.444 89.93 138.954 87.83 138.954 85.45C138.954 83.07 139.43 80.984 140.382 79.192C141.334 77.4 142.664 76.028 144.372 75.076C146.108 74.096 148.096 73.606 150.336 73.606C152.52 73.606 154.452 74.082 156.132 75.034C157.812 75.986 159.1 77.302 159.996 78.982C160.92 80.634 161.382 82.51 161.382 84.61ZM157.434 83.812C157.434 82.356 157.112 81.11 156.468 80.074C155.824 79.01 154.942 78.212 153.822 77.68C152.73 77.12 151.512 76.84 150.168 76.84C148.236 76.84 146.584 77.456 145.212 78.688C143.868 79.92 143.098 81.628 142.902 83.812H157.434ZM170.249 77.722C170.921 76.406 171.873 75.384 173.105 74.656C174.365 73.928 175.891 73.564 177.683 73.564V77.512H176.675C172.391 77.512 170.249 79.836 170.249 84.484V97H166.427V73.984H170.249V77.722ZM191.865 85.408C191.865 83.056 192.341 80.998 193.293 79.234C194.245 77.442 195.547 76.056 197.199 75.076C198.879 74.096 200.741 73.606 202.785 73.606C204.801 73.606 206.551 74.04 208.035 74.908C209.519 75.776 210.625 76.868 211.353 78.184V73.984H215.217V97H211.353V92.716C210.597 94.06 209.463 95.18 207.951 96.076C206.467 96.944 204.731 97.378 202.743 97.378C200.699 97.378 198.851 96.874 197.199 95.866C195.547 94.858 194.245 93.444 193.293 91.624C192.341 89.804 191.865 87.732 191.865 85.408ZM211.353 85.45C211.353 83.714 211.003 82.202 210.303 80.914C209.603 79.626 208.651 78.646 207.447 77.974C206.271 77.274 204.969 76.924 203.541 76.924C202.113 76.924 200.811 77.26 199.635 77.932C198.459 78.604 197.521 79.584 196.821 80.872C196.121 82.16 195.771 83.672 195.771 85.408C195.771 87.172 196.121 88.712 196.821 90.028C197.521 91.316 198.459 92.31 199.635 93.01C200.811 93.682 202.113 94.018 203.541 94.018C204.969 94.018 206.271 93.682 207.447 93.01C208.651 92.31 209.603 91.316 210.303 90.028C211.003 88.712 211.353 87.186 211.353 85.45ZM220.247 85.408C220.247 83.056 220.723 80.998 221.675 79.234C222.627 77.442 223.929 76.056 225.581 75.076C227.261 74.096 229.137 73.606 231.209 73.606C233.001 73.606 234.667 74.026 236.207 74.866C237.747 75.678 238.923 76.756 239.735 78.1V65.92H243.599V97H239.735V92.674C238.979 94.046 237.859 95.18 236.375 96.076C234.891 96.944 233.155 97.378 231.167 97.378C229.123 97.378 227.261 96.874 225.581 95.866C223.929 94.858 222.627 93.444 221.675 91.624C220.723 89.804 220.247 87.732 220.247 85.408ZM239.735 85.45C239.735 83.714 239.385 82.202 238.685 80.914C237.985 79.626 237.033 78.646 235.829 77.974C234.653 77.274 233.351 76.924 231.923 76.924C230.495 76.924 229.193 77.26 228.017 77.932C226.841 78.604 225.903 79.584 225.203 80.872C224.503 82.16 224.153 83.672 224.153 85.408C224.153 87.172 224.503 88.712 225.203 90.028C225.903 91.316 226.841 92.31 228.017 93.01C229.193 93.682 230.495 94.018 231.923 94.018C233.351 94.018 234.653 93.682 235.829 93.01C237.033 92.31 237.985 91.316 238.685 90.028C239.385 88.712 239.735 87.186 239.735 85.45ZM248.63 85.408C248.63 83.056 249.106 80.998 250.058 79.234C251.01 77.442 252.312 76.056 253.964 75.076C255.644 74.096 257.52 73.606 259.592 73.606C261.384 73.606 263.05 74.026 264.59 74.866C266.13 75.678 267.306 76.756 268.118 78.1V65.92H271.982V97H268.118V92.674C267.362 94.046 266.242 95.18 264.758 96.076C263.274 96.944 261.538 97.378 259.55 97.378C257.506 97.378 255.644 96.874 253.964 95.866C252.312 94.858 251.01 93.444 250.058 91.624C249.106 89.804 248.63 87.732 248.63 85.408ZM268.118 85.45C268.118 83.714 267.768 82.202 267.068 80.914C266.368 79.626 265.416 78.646 264.212 77.974C263.036 77.274 261.734 76.924 260.306 76.924C258.878 76.924 257.576 77.26 256.4 77.932C255.224 78.604 254.286 79.584 253.586 80.872C252.886 82.16 252.536 83.672 252.536 85.408C252.536 87.172 252.886 88.712 253.586 90.028C254.286 91.316 255.224 92.31 256.4 93.01C257.576 93.682 258.878 94.018 260.306 94.018C261.734 94.018 263.036 93.682 264.212 93.01C265.416 92.31 266.368 91.316 267.068 90.028C267.768 88.712 268.118 87.186 268.118 85.45ZM280.415 70.246C279.687 70.246 279.071 69.994 278.567 69.49C278.063 68.986 277.811 68.37 277.811 67.642C277.811 66.914 278.063 66.298 278.567 65.794C279.071 65.29 279.687 65.038 280.415 65.038C281.115 65.038 281.703 65.29 282.179 65.794C282.683 66.298 282.935 66.914 282.935 67.642C282.935 68.37 282.683 68.986 282.179 69.49C281.703 69.994 281.115 70.246 280.415 70.246ZM282.263 73.984V97H278.441V73.984H282.263ZM287.349 85.45C287.349 83.07 287.825 80.998 288.777 79.234C289.729 77.442 291.045 76.056 292.725 75.076C294.433 74.096 296.379 73.606 298.563 73.606C301.391 73.606 303.715 74.292 305.535 75.664C307.383 77.036 308.601 78.94 309.189 81.376H305.073C304.681 79.976 303.911 78.87 302.763 78.058C301.643 77.246 300.243 76.84 298.563 76.84C296.379 76.84 294.615 77.596 293.271 79.108C291.927 80.592 291.255 82.706 291.255 85.45C291.255 88.222 291.927 90.364 293.271 91.876C294.615 93.388 296.379 94.144 298.563 94.144C300.243 94.144 301.643 93.752 302.763 92.968C303.883 92.184 304.653 91.064 305.073 89.608H309.189C308.573 91.96 307.341 93.85 305.493 95.278C303.645 96.678 301.335 97.378 298.563 97.378C296.379 97.378 294.433 96.888 292.725 95.908C291.045 94.928 289.729 93.542 288.777 91.75C287.825 89.958 287.349 87.858 287.349 85.45ZM318.951 77.134V90.7C318.951 91.82 319.189 92.618 319.665 93.094C320.141 93.542 320.967 93.766 322.143 93.766H324.957V97H321.513C319.385 97 317.789 96.51 316.725 95.53C315.661 94.55 315.129 92.94 315.129 90.7V77.134H312.147V73.984H315.129V68.188H318.951V73.984H324.957V77.134H318.951Z" fill="white"/>
<path d="M413.31 74.0698C418.062 77.6711 418.062 84.8137 413.31 88.4151L344.38 140.659C338.453 145.151 329.944 140.924 329.944 133.486V28.9986C329.944 21.5612 338.453 17.3335 344.38 21.8259L413.31 74.0698Z" fill="white"/>
<line x1="19" y1="101.5" x2="327" y2="101.5" stroke="#E45858"/>
<path d="M377.344 96.375H364.941C363.103 96.375 361.419 95.6719 360.041 94.5469L340.594 76.6875L351.312 65.4375C351.312 70.9219 357.591 76.6875 363.562 76.6875H365.094C364.941 83.0156 367.544 87.6563 374.281 89.625C374.741 89.7656 375.047 89.9062 375.506 89.9062C377.344 90.3281 378.569 92.1563 378.109 93.8438L377.344 96.375Z" stroke="black" stroke-width="2" stroke-miterlimit="10" stroke-linecap="round" stroke-linejoin="round"/>
<path d="M337.531 79.5L358.509 98.7656C359.734 99.8906 361.572 100.594 363.409 100.594H377.344" stroke="black" stroke-width="2" stroke-miterlimit="10" stroke-linecap="round" stroke-linejoin="round"/>
<path d="M352.078 80.9062C353.347 80.9062 354.375 79.9619 354.375 78.7969C354.375 77.6319 353.347 76.6875 352.078 76.6875C350.81 76.6875 349.781 77.6319 349.781 78.7969C349.781 79.9619 350.81 80.9062 352.078 80.9062Z" stroke="black" stroke-width="2" stroke-miterlimit="10" stroke-linecap="round" stroke-linejoin="round"/>
<path d="M358.969 83.7188H365.859" stroke="black" stroke-width="2" stroke-miterlimit="10" stroke-linecap="round" stroke-linejoin="round"/>
<path d="M362.031 87.9375H370.453" stroke="black" stroke-width="2" stroke-miterlimit="10" stroke-linecap="round" stroke-linejoin="round"/>
<path d="M378.875 58.4062L367.697 68.6719C365.094 71.0625 364.175 74.4375 365.094 77.6719" stroke="black" stroke-width="2" stroke-miterlimit="10" stroke-linecap="round" stroke-linejoin="round"/>
<path d="M351.312 66.8438C354.222 66 356.825 64.0312 358.356 61.6406L360.5 58.4062" stroke="black" stroke-width="2" stroke-miterlimit="10" stroke-linecap="round" stroke-linejoin="round"/>
<defs>
<filter id="filter0_d" x="0" y="10" width="434" height="150" filterUnits="userSpaceOnUse" color-interpolation-filters="sRGB">
<feFlood flood-opacity="0" result="BackgroundImageFix"/>
<feColorMatrix in="SourceAlpha" type="matrix" values="0 0 0 0 0 0 0 0 0 0 0 0 0 0 0 0 0 0 127 0"/>
<feMorphology radius="3" operator="dilate" in="SourceAlpha" result="effect1_dropShadow"/>
<feOffset dx="2" dy="5"/>
<feGaussianBlur stdDeviation="3"/>
<feColorMatrix type="matrix" values="0 0 0 0 0 0 0 0 0 0 0 0 0 0 0 0 0 0 0.25 0"/>
<feBlend mode="normal" in2="BackgroundImageFix" result="effect1_dropShadow"/>
<feBlend mode="normal" in="SourceGraphic" in2="effect1_dropShadow" result="shape"/>
</filter>
</defs>
</svg>
