<svg width="685" height="48" viewBox="0 0 685 48" fill="none" xmlns="http://www.w3.org/2000/svg">
<path d="M7.46 13.715V28.25C7.46 29.45 7.715 30.305 8.225 30.815C8.735 31.295 9.62 31.535 10.88 31.535H13.895V35H10.205C7.925 35 6.215 34.475 5.075 33.425C3.935 32.375 3.365 30.65 3.365 28.25V13.715H0.17V10.34H3.365V4.13H7.46V10.34H13.895V13.715H7.46ZM31.0966 9.89C32.9566 9.89 34.6366 10.295 36.1366 11.105C37.6366 11.885 38.8066 13.07 39.6466 14.66C40.5166 16.25 40.9516 18.185 40.9516 20.465V35H36.9016V21.05C36.9016 18.59 36.2866 16.715 35.0566 15.425C33.8266 14.105 32.1466 13.445 30.0166 13.445C27.8566 13.445 26.1316 14.12 24.8416 15.47C23.5816 16.82 22.9516 18.785 22.9516 21.365V35H18.8566V1.7H22.9516V13.85C23.7616 12.59 24.8716 11.615 26.2816 10.925C27.7216 10.235 29.3266 9.89 31.0966 9.89ZM70.1408 21.725C70.1408 22.505 70.0958 23.33 70.0058 24.2H50.2958C50.4458 26.63 51.2708 28.535 52.7708 29.915C54.3008 31.265 56.1458 31.94 58.3058 31.94C60.0758 31.94 61.5458 31.535 62.7158 30.725C63.9158 29.885 64.7558 28.775 65.2358 27.395H69.6458C68.9858 29.765 67.6658 31.7 65.6858 33.2C63.7058 34.67 61.2458 35.405 58.3058 35.405C55.9658 35.405 53.8658 34.88 52.0058 33.83C50.1758 32.78 48.7358 31.295 47.6858 29.375C46.6358 27.425 46.1108 25.175 46.1108 22.625C46.1108 20.075 46.6208 17.84 47.6408 15.92C48.6608 14 50.0858 12.53 51.9158 11.51C53.7758 10.46 55.9058 9.935 58.3058 9.935C60.6458 9.935 62.7158 10.445 64.5158 11.465C66.3158 12.485 67.6958 13.895 68.6558 15.695C69.6458 17.465 70.1408 19.475 70.1408 21.725ZM65.9108 20.87C65.9108 19.31 65.5658 17.975 64.8758 16.865C64.1858 15.725 63.2408 14.87 62.0408 14.3C60.8708 13.7 59.5658 13.4 58.1258 13.4C56.0558 13.4 54.2858 14.06 52.8158 15.38C51.3758 16.7 50.5508 18.53 50.3408 20.87H65.9108ZM110.043 21.725C110.043 22.505 109.998 23.33 109.908 24.2H90.1981C90.3481 26.63 91.1731 28.535 92.6731 29.915C94.2031 31.265 96.0481 31.94 98.2081 31.94C99.9781 31.94 101.448 31.535 102.618 30.725C103.818 29.885 104.658 28.775 105.138 27.395H109.548C108.888 29.765 107.568 31.7 105.588 33.2C103.608 34.67 101.148 35.405 98.2081 35.405C95.8681 35.405 93.7681 34.88 91.9081 33.83C90.0781 32.78 88.6381 31.295 87.5881 29.375C86.5381 27.425 86.0131 25.175 86.0131 22.625C86.0131 20.075 86.5231 17.84 87.5431 15.92C88.5631 14 89.9881 12.53 91.8181 11.51C93.6781 10.46 95.8081 9.935 98.2081 9.935C100.548 9.935 102.618 10.445 104.418 11.465C106.218 12.485 107.598 13.895 108.558 15.695C109.548 17.465 110.043 19.475 110.043 21.725ZM105.813 20.87C105.813 19.31 105.468 17.975 104.778 16.865C104.088 15.725 103.143 14.87 101.943 14.3C100.773 13.7 99.4681 13.4 98.0281 13.4C95.9581 13.4 94.1881 14.06 92.7181 15.38C91.2781 16.7 90.4531 18.53 90.2431 20.87H105.813ZM113.918 22.58C113.918 20.06 114.428 17.855 115.448 15.965C116.468 14.045 117.863 12.56 119.633 11.51C121.433 10.46 123.428 9.935 125.618 9.935C127.778 9.935 129.653 10.4 131.243 11.33C132.833 12.26 134.018 13.43 134.798 14.84V10.34H138.938V35H134.798V30.41C133.988 31.85 132.773 33.05 131.153 34.01C129.563 34.94 127.703 35.405 125.573 35.405C123.383 35.405 121.403 34.865 119.633 33.785C117.863 32.705 116.468 31.19 115.448 29.24C114.428 27.29 113.918 25.07 113.918 22.58ZM134.798 22.625C134.798 20.765 134.423 19.145 133.673 17.765C132.923 16.385 131.903 15.335 130.613 14.615C129.353 13.865 127.958 13.49 126.428 13.49C124.898 13.49 123.503 13.85 122.243 14.57C120.983 15.29 119.978 16.34 119.228 17.72C118.478 19.1 118.103 20.72 118.103 22.58C118.103 24.47 118.478 26.12 119.228 27.53C119.978 28.91 120.983 29.975 122.243 30.725C123.503 31.445 124.898 31.805 126.428 31.805C127.958 31.805 129.353 31.445 130.613 30.725C131.903 29.975 132.923 28.91 133.673 27.53C134.423 26.12 134.798 24.485 134.798 22.625ZM154.589 35.405C152.699 35.405 151.004 35.09 149.504 34.46C148.004 33.8 146.819 32.9 145.949 31.76C145.079 30.59 144.599 29.255 144.509 27.755H148.739C148.859 28.985 149.429 29.99 150.449 30.77C151.499 31.55 152.864 31.94 154.544 31.94C156.104 31.94 157.334 31.595 158.234 30.905C159.134 30.215 159.584 29.345 159.584 28.295C159.584 27.215 159.104 26.42 158.144 25.91C157.184 25.37 155.699 24.845 153.689 24.335C151.859 23.855 150.359 23.375 149.189 22.895C148.049 22.385 147.059 21.65 146.219 20.69C145.409 19.7 145.004 18.41 145.004 16.82C145.004 15.56 145.379 14.405 146.129 13.355C146.879 12.305 147.944 11.48 149.324 10.88C150.704 10.25 152.279 9.935 154.049 9.935C156.779 9.935 158.984 10.625 160.664 12.005C162.344 13.385 163.244 15.275 163.364 17.675H159.269C159.179 16.385 158.654 15.35 157.694 14.57C156.764 13.79 155.504 13.4 153.914 13.4C152.444 13.4 151.274 13.715 150.404 14.345C149.534 14.975 149.099 15.8 149.099 16.82C149.099 17.63 149.354 18.305 149.864 18.845C150.404 19.355 151.064 19.775 151.844 20.105C152.654 20.405 153.764 20.75 155.174 21.14C156.944 21.62 158.384 22.1 159.494 22.58C160.604 23.03 161.549 23.72 162.329 24.65C163.139 25.58 163.559 26.795 163.589 28.295C163.589 29.645 163.214 30.86 162.464 31.94C161.714 33.02 160.649 33.875 159.269 34.505C157.919 35.105 156.359 35.405 154.589 35.405ZM171.484 6.335C170.704 6.335 170.044 6.065 169.504 5.525C168.964 4.985 168.694 4.325 168.694 3.545C168.694 2.765 168.964 2.105 169.504 1.565C170.044 1.025 170.704 0.754998 171.484 0.754998C172.234 0.754998 172.864 1.025 173.374 1.565C173.914 2.105 174.184 2.765 174.184 3.545C174.184 4.325 173.914 4.985 173.374 5.525C172.864 6.065 172.234 6.335 171.484 6.335ZM173.464 10.34V35H169.369V10.34H173.464ZM202.944 21.725C202.944 22.505 202.899 23.33 202.809 24.2H183.099C183.249 26.63 184.074 28.535 185.574 29.915C187.104 31.265 188.949 31.94 191.109 31.94C192.879 31.94 194.349 31.535 195.519 30.725C196.719 29.885 197.559 28.775 198.039 27.395H202.449C201.789 29.765 200.469 31.7 198.489 33.2C196.509 34.67 194.049 35.405 191.109 35.405C188.769 35.405 186.669 34.88 184.809 33.83C182.979 32.78 181.539 31.295 180.489 29.375C179.439 27.425 178.914 25.175 178.914 22.625C178.914 20.075 179.424 17.84 180.444 15.92C181.464 14 182.889 12.53 184.719 11.51C186.579 10.46 188.709 9.935 191.109 9.935C193.449 9.935 195.519 10.445 197.319 11.465C199.119 12.485 200.499 13.895 201.459 15.695C202.449 17.465 202.944 19.475 202.944 21.725ZM198.714 20.87C198.714 19.31 198.369 17.975 197.679 16.865C196.989 15.725 196.044 14.87 194.844 14.3C193.674 13.7 192.369 13.4 190.929 13.4C188.859 13.4 187.089 14.06 185.619 15.38C184.179 16.7 183.354 18.53 183.144 20.87H198.714ZM217.079 35.405C215.189 35.405 213.494 35.09 211.994 34.46C210.494 33.8 209.309 32.9 208.439 31.76C207.569 30.59 207.089 29.255 206.999 27.755H211.229C211.349 28.985 211.919 29.99 212.939 30.77C213.989 31.55 215.354 31.94 217.034 31.94C218.594 31.94 219.824 31.595 220.724 30.905C221.624 30.215 222.074 29.345 222.074 28.295C222.074 27.215 221.594 26.42 220.634 25.91C219.674 25.37 218.189 24.845 216.179 24.335C214.349 23.855 212.849 23.375 211.679 22.895C210.539 22.385 209.549 21.65 208.709 20.69C207.899 19.7 207.494 18.41 207.494 16.82C207.494 15.56 207.869 14.405 208.619 13.355C209.369 12.305 210.434 11.48 211.814 10.88C213.194 10.25 214.769 9.935 216.539 9.935C219.269 9.935 221.474 10.625 223.154 12.005C224.834 13.385 225.734 15.275 225.854 17.675H221.759C221.669 16.385 221.144 15.35 220.184 14.57C219.254 13.79 217.994 13.4 216.404 13.4C214.934 13.4 213.764 13.715 212.894 14.345C212.024 14.975 211.589 15.8 211.589 16.82C211.589 17.63 211.844 18.305 212.354 18.845C212.894 19.355 213.554 19.775 214.334 20.105C215.144 20.405 216.254 20.75 217.664 21.14C219.434 21.62 220.874 22.1 221.984 22.58C223.094 23.03 224.039 23.72 224.819 24.65C225.629 25.58 226.049 26.795 226.079 28.295C226.079 29.645 225.704 30.86 224.954 31.94C224.204 33.02 223.139 33.875 221.759 34.505C220.409 35.105 218.849 35.405 217.079 35.405ZM236.855 13.715V28.25C236.855 29.45 237.11 30.305 237.62 30.815C238.13 31.295 239.015 31.535 240.275 31.535H243.29V35H239.6C237.32 35 235.61 34.475 234.47 33.425C233.33 32.375 232.76 30.65 232.76 28.25V13.715H229.565V10.34H232.76V4.13H236.855V10.34H243.29V13.715H236.855ZM293.098 10.34L285.403 35H281.173L275.233 15.425L269.293 35H265.063L257.323 10.34H261.508L267.178 31.04L273.298 10.34H277.483L283.468 31.085L289.048 10.34H293.098ZM295.632 22.58C295.632 20.06 296.142 17.855 297.162 15.965C298.182 14.045 299.577 12.56 301.347 11.51C303.147 10.46 305.142 9.935 307.332 9.935C309.492 9.935 311.367 10.4 312.957 11.33C314.547 12.26 315.732 13.43 316.512 14.84V10.34H320.652V35H316.512V30.41C315.702 31.85 314.487 33.05 312.867 34.01C311.277 34.94 309.417 35.405 307.287 35.405C305.097 35.405 303.117 34.865 301.347 33.785C299.577 32.705 298.182 31.19 297.162 29.24C296.142 27.29 295.632 25.07 295.632 22.58ZM316.512 22.625C316.512 20.765 316.137 19.145 315.387 17.765C314.637 16.385 313.617 15.335 312.327 14.615C311.067 13.865 309.672 13.49 308.142 13.49C306.612 13.49 305.217 13.85 303.957 14.57C302.697 15.29 301.692 16.34 300.942 17.72C300.192 19.1 299.817 20.72 299.817 22.58C299.817 24.47 300.192 26.12 300.942 27.53C301.692 28.91 302.697 29.975 303.957 30.725C305.217 31.445 306.612 31.805 308.142 31.805C309.672 31.805 311.067 31.445 312.327 30.725C313.617 29.975 314.637 28.91 315.387 27.53C316.137 26.12 316.512 24.485 316.512 22.625ZM348.812 10.34L333.962 46.61H329.732L334.592 34.73L324.647 10.34H329.192L336.932 30.32L344.582 10.34H348.812ZM369.921 13.715V28.25C369.921 29.45 370.176 30.305 370.686 30.815C371.196 31.295 372.081 31.535 373.341 31.535H376.356V35H372.666C370.386 35 368.676 34.475 367.536 33.425C366.396 32.375 365.826 30.65 365.826 28.25V13.715H362.631V10.34H365.826V4.13H369.921V10.34H376.356V13.715H369.921ZM392.073 35.405C389.763 35.405 387.663 34.88 385.773 33.83C383.913 32.78 382.443 31.295 381.363 29.375C380.313 27.425 379.788 25.175 379.788 22.625C379.788 20.105 380.328 17.885 381.408 15.965C382.518 14.015 384.018 12.53 385.908 11.51C387.798 10.46 389.913 9.935 392.253 9.935C394.593 9.935 396.708 10.46 398.598 11.51C400.488 12.53 401.973 14 403.053 15.92C404.163 17.84 404.718 20.075 404.718 22.625C404.718 25.175 404.148 27.425 403.008 29.375C401.898 31.295 400.383 32.78 398.463 33.83C396.543 34.88 394.413 35.405 392.073 35.405ZM392.073 31.805C393.543 31.805 394.923 31.46 396.213 30.77C397.503 30.08 398.538 29.045 399.318 27.665C400.128 26.285 400.533 24.605 400.533 22.625C400.533 20.645 400.143 18.965 399.363 17.585C398.583 16.205 397.563 15.185 396.303 14.525C395.043 13.835 393.678 13.49 392.208 13.49C390.708 13.49 389.328 13.835 388.068 14.525C386.838 15.185 385.848 16.205 385.098 17.585C384.348 18.965 383.973 20.645 383.973 22.625C383.973 24.635 384.333 26.33 385.053 27.71C385.803 29.09 386.793 30.125 388.023 30.815C389.253 31.475 390.603 31.805 392.073 31.805ZM432.269 9.935C434.399 9.935 436.259 10.4 437.849 11.33C439.469 12.26 440.669 13.43 441.449 14.84V10.34H445.589V35.54C445.589 37.79 445.109 39.785 444.149 41.525C443.189 43.295 441.809 44.675 440.009 45.665C438.239 46.655 436.169 47.15 433.799 47.15C430.559 47.15 427.859 46.385 425.699 44.855C423.539 43.325 422.264 41.24 421.874 38.6H425.924C426.374 40.1 427.304 41.3 428.714 42.2C430.124 43.13 431.819 43.595 433.799 43.595C436.049 43.595 437.879 42.89 439.289 41.48C440.729 40.07 441.449 38.09 441.449 35.54V30.365C440.639 31.805 439.439 33.005 437.849 33.965C436.259 34.925 434.399 35.405 432.269 35.405C430.079 35.405 428.084 34.865 426.284 33.785C424.514 32.705 423.119 31.19 422.099 29.24C421.079 27.29 420.569 25.07 420.569 22.58C420.569 20.06 421.079 17.855 422.099 15.965C423.119 14.045 424.514 12.56 426.284 11.51C428.084 10.46 430.079 9.935 432.269 9.935ZM441.449 22.625C441.449 20.765 441.074 19.145 440.324 17.765C439.574 16.385 438.554 15.335 437.264 14.615C436.004 13.865 434.609 13.49 433.079 13.49C431.549 13.49 430.154 13.85 428.894 14.57C427.634 15.29 426.629 16.34 425.879 17.72C425.129 19.1 424.754 20.72 424.754 22.58C424.754 24.47 425.129 26.12 425.879 27.53C426.629 28.91 427.634 29.975 428.894 30.725C430.154 31.445 431.549 31.805 433.079 31.805C434.609 31.805 436.004 31.445 437.264 30.725C438.554 29.975 439.574 28.91 440.324 27.53C441.074 26.12 441.449 24.485 441.449 22.625ZM475.009 21.725C475.009 22.505 474.964 23.33 474.874 24.2H455.164C455.314 26.63 456.139 28.535 457.639 29.915C459.169 31.265 461.014 31.94 463.174 31.94C464.944 31.94 466.414 31.535 467.584 30.725C468.784 29.885 469.624 28.775 470.104 27.395H474.514C473.854 29.765 472.534 31.7 470.554 33.2C468.574 34.67 466.114 35.405 463.174 35.405C460.834 35.405 458.734 34.88 456.874 33.83C455.044 32.78 453.604 31.295 452.554 29.375C451.504 27.425 450.979 25.175 450.979 22.625C450.979 20.075 451.489 17.84 452.509 15.92C453.529 14 454.954 12.53 456.784 11.51C458.644 10.46 460.774 9.935 463.174 9.935C465.514 9.935 467.584 10.445 469.384 11.465C471.184 12.485 472.564 13.895 473.524 15.695C474.514 17.465 475.009 19.475 475.009 21.725ZM470.779 20.87C470.779 19.31 470.434 17.975 469.744 16.865C469.054 15.725 468.109 14.87 466.909 14.3C465.739 13.7 464.434 13.4 462.994 13.4C460.924 13.4 459.154 14.06 457.684 15.38C456.244 16.7 455.419 18.53 455.209 20.87H470.779ZM485.409 13.715V28.25C485.409 29.45 485.664 30.305 486.174 30.815C486.684 31.295 487.569 31.535 488.829 31.535H491.844V35H488.154C485.874 35 484.164 34.475 483.024 33.425C481.884 32.375 481.314 30.65 481.314 28.25V13.715H478.119V10.34H481.314V4.13H485.409V10.34H491.844V13.715H485.409ZM510.918 6.335C510.138 6.335 509.478 6.065 508.938 5.525C508.398 4.985 508.128 4.325 508.128 3.545C508.128 2.765 508.398 2.105 508.938 1.565C509.478 1.025 510.138 0.754998 510.918 0.754998C511.668 0.754998 512.298 1.025 512.808 1.565C513.348 2.105 513.618 2.765 513.618 3.545C513.618 4.325 513.348 4.985 512.808 5.525C512.298 6.065 511.668 6.335 510.918 6.335ZM512.898 10.34V35H508.803V10.34H512.898ZM531.892 9.89C534.892 9.89 537.322 10.805 539.182 12.635C541.042 14.435 541.972 17.045 541.972 20.465V35H537.922V21.05C537.922 18.59 537.307 16.715 536.077 15.425C534.847 14.105 533.167 13.445 531.037 13.445C528.877 13.445 527.152 14.12 525.862 15.47C524.602 16.82 523.972 18.785 523.972 21.365V35H519.877V10.34H523.972V13.85C524.782 12.59 525.877 11.615 527.257 10.925C528.667 10.235 530.212 9.89 531.892 9.89ZM565.653 13.715V28.25C565.653 29.45 565.908 30.305 566.418 30.815C566.928 31.295 567.813 31.535 569.073 31.535H572.088V35H568.398C566.118 35 564.408 34.475 563.268 33.425C562.128 32.375 561.558 30.65 561.558 28.25V13.715H558.363V10.34H561.558V4.13H565.653V10.34H572.088V13.715H565.653ZM587.805 35.405C585.495 35.405 583.395 34.88 581.505 33.83C579.645 32.78 578.175 31.295 577.095 29.375C576.045 27.425 575.52 25.175 575.52 22.625C575.52 20.105 576.06 17.885 577.14 15.965C578.25 14.015 579.75 12.53 581.64 11.51C583.53 10.46 585.645 9.935 587.985 9.935C590.325 9.935 592.44 10.46 594.33 11.51C596.22 12.53 597.705 14 598.785 15.92C599.895 17.84 600.45 20.075 600.45 22.625C600.45 25.175 599.88 27.425 598.74 29.375C597.63 31.295 596.115 32.78 594.195 33.83C592.275 34.88 590.145 35.405 587.805 35.405ZM587.805 31.805C589.275 31.805 590.655 31.46 591.945 30.77C593.235 30.08 594.27 29.045 595.05 27.665C595.86 26.285 596.265 24.605 596.265 22.625C596.265 20.645 595.875 18.965 595.095 17.585C594.315 16.205 593.295 15.185 592.035 14.525C590.775 13.835 589.41 13.49 587.94 13.49C586.44 13.49 585.06 13.835 583.8 14.525C582.57 15.185 581.58 16.205 580.83 17.585C580.08 18.965 579.705 20.645 579.705 22.625C579.705 24.635 580.065 26.33 580.785 27.71C581.535 29.09 582.525 30.125 583.755 30.815C584.985 31.475 586.335 31.805 587.805 31.805ZM604.304 22.625C604.304 20.075 604.814 17.855 605.834 15.965C606.854 14.045 608.264 12.56 610.064 11.51C611.894 10.46 613.979 9.935 616.319 9.935C619.349 9.935 621.839 10.67 623.789 12.14C625.769 13.61 627.074 15.65 627.704 18.26H623.294C622.874 16.76 622.049 15.575 620.819 14.705C619.619 13.835 618.119 13.4 616.319 13.4C613.979 13.4 612.089 14.21 610.649 15.83C609.209 17.42 608.489 19.685 608.489 22.625C608.489 25.595 609.209 27.89 610.649 29.51C612.089 31.13 613.979 31.94 616.319 31.94C618.119 31.94 619.619 31.52 620.819 30.68C622.019 29.84 622.844 28.64 623.294 27.08H627.704C627.044 29.6 625.724 31.625 623.744 33.155C621.764 34.655 619.289 35.405 616.319 35.405C613.979 35.405 611.894 34.88 610.064 33.83C608.264 32.78 606.854 31.295 605.834 29.375C604.814 27.455 604.304 25.205 604.304 22.625ZM655.038 10.34V35H650.943V31.355C650.163 32.615 649.068 33.605 647.658 34.325C646.278 35.015 644.748 35.36 643.068 35.36C641.148 35.36 639.423 34.97 637.893 34.19C636.363 33.38 635.148 32.18 634.248 30.59C633.378 29 632.943 27.065 632.943 24.785V10.34H636.993V24.245C636.993 26.675 637.608 28.55 638.838 29.87C640.068 31.16 641.748 31.805 643.878 31.805C646.068 31.805 647.793 31.13 649.053 29.78C650.313 28.43 650.943 26.465 650.943 23.885V10.34H655.038ZM674.192 9.89C676.052 9.89 677.732 10.295 679.232 11.105C680.732 11.885 681.902 13.07 682.742 14.66C683.612 16.25 684.047 18.185 684.047 20.465V35H679.997V21.05C679.997 18.59 679.382 16.715 678.152 15.425C676.922 14.105 675.242 13.445 673.112 13.445C670.952 13.445 669.227 14.12 667.937 15.47C666.677 16.82 666.047 18.785 666.047 21.365V35H661.952V1.7H666.047V13.85C666.857 12.59 667.967 11.615 669.377 10.925C670.817 10.235 672.422 9.89 674.192 9.89Z" fill="black"/>
</svg>
