<svg width="677" height="47" viewBox="0 0 677 47" fill="none" xmlns="http://www.w3.org/2000/svg">
<path d="M21.77 3.635V6.965H13.22V35H9.125V6.965H0.53V3.635H21.77ZM39.0507 9.89C40.9107 9.89 42.5907 10.295 44.0907 11.105C45.5907 11.885 46.7607 13.07 47.6007 14.66C48.4707 16.25 48.9057 18.185 48.9057 20.465V35H44.8557V21.05C44.8557 18.59 44.2407 16.715 43.0107 15.425C41.7807 14.105 40.1007 13.445 37.9707 13.445C35.8107 13.445 34.0857 14.12 32.7957 15.47C31.5357 16.82 30.9057 18.785 30.9057 21.365V35H26.8107V1.7H30.9057V13.85C31.7157 12.59 32.8257 11.615 34.2357 10.925C35.6757 10.235 37.2807 9.89 39.0507 9.89ZM78.0949 21.725C78.0949 22.505 78.0499 23.33 77.9599 24.2H58.2499C58.3999 26.63 59.2249 28.535 60.7249 29.915C62.2549 31.265 64.0999 31.94 66.2599 31.94C68.0299 31.94 69.4999 31.535 70.6699 30.725C71.8699 29.885 72.7099 28.775 73.1899 27.395H77.5999C76.9399 29.765 75.6199 31.7 73.6399 33.2C71.6599 34.67 69.1999 35.405 66.2599 35.405C63.9199 35.405 61.8199 34.88 59.9599 33.83C58.1299 32.78 56.6899 31.295 55.6399 29.375C54.5899 27.425 54.0649 25.175 54.0649 22.625C54.0649 20.075 54.5749 17.84 55.5949 15.92C56.6149 14 58.0399 12.53 59.8699 11.51C61.7299 10.46 63.8599 9.935 66.2599 9.935C68.5999 9.935 70.6699 10.445 72.4699 11.465C74.2699 12.485 75.6499 13.895 76.6099 15.695C77.5999 17.465 78.0949 19.475 78.0949 21.725ZM73.8649 20.87C73.8649 19.31 73.5199 17.975 72.8299 16.865C72.1399 15.725 71.1949 14.87 69.9949 14.3C68.8249 13.7 67.5199 13.4 66.0799 13.4C64.0099 13.4 62.2399 14.06 60.7699 15.38C59.3299 16.7 58.5049 18.53 58.2949 20.87H73.8649ZM92.2302 35.405C90.3402 35.405 88.6452 35.09 87.1452 34.46C85.6452 33.8 84.4602 32.9 83.5902 31.76C82.7202 30.59 82.2402 29.255 82.1502 27.755H86.3802C86.5002 28.985 87.0702 29.99 88.0902 30.77C89.1402 31.55 90.5052 31.94 92.1852 31.94C93.7452 31.94 94.9752 31.595 95.8752 30.905C96.7752 30.215 97.2252 29.345 97.2252 28.295C97.2252 27.215 96.7452 26.42 95.7852 25.91C94.8252 25.37 93.3402 24.845 91.3302 24.335C89.5002 23.855 88.0002 23.375 86.8302 22.895C85.6902 22.385 84.7002 21.65 83.8602 20.69C83.0502 19.7 82.6452 18.41 82.6452 16.82C82.6452 15.56 83.0202 14.405 83.7702 13.355C84.5202 12.305 85.5852 11.48 86.9652 10.88C88.3452 10.25 89.9202 9.935 91.6902 9.935C94.4202 9.935 96.6252 10.625 98.3052 12.005C99.9852 13.385 100.885 15.275 101.005 17.675H96.9102C96.8202 16.385 96.2952 15.35 95.3352 14.57C94.4052 13.79 93.1452 13.4 91.5552 13.4C90.0852 13.4 88.9152 13.715 88.0452 14.345C87.1752 14.975 86.7402 15.8 86.7402 16.82C86.7402 17.63 86.9952 18.305 87.5052 18.845C88.0452 19.355 88.7052 19.775 89.4852 20.105C90.2952 20.405 91.4052 20.75 92.8152 21.14C94.5852 21.62 96.0252 22.1 97.1352 22.58C98.2452 23.03 99.1902 23.72 99.9702 24.65C100.78 25.58 101.2 26.795 101.23 28.295C101.23 29.645 100.855 30.86 100.105 31.94C99.3552 33.02 98.2902 33.875 96.9102 34.505C95.5602 35.105 94.0002 35.405 92.2302 35.405ZM129.511 21.725C129.511 22.505 129.466 23.33 129.376 24.2H109.666C109.816 26.63 110.641 28.535 112.141 29.915C113.671 31.265 115.516 31.94 117.676 31.94C119.446 31.94 120.916 31.535 122.086 30.725C123.286 29.885 124.126 28.775 124.606 27.395H129.016C128.356 29.765 127.036 31.7 125.056 33.2C123.076 34.67 120.616 35.405 117.676 35.405C115.336 35.405 113.236 34.88 111.376 33.83C109.546 32.78 108.106 31.295 107.056 29.375C106.006 27.425 105.481 25.175 105.481 22.625C105.481 20.075 105.991 17.84 107.011 15.92C108.031 14 109.456 12.53 111.286 11.51C113.146 10.46 115.276 9.935 117.676 9.935C120.016 9.935 122.086 10.445 123.886 11.465C125.686 12.485 127.066 13.895 128.026 15.695C129.016 17.465 129.511 19.475 129.511 21.725ZM125.281 20.87C125.281 19.31 124.936 17.975 124.246 16.865C123.556 15.725 122.611 14.87 121.411 14.3C120.241 13.7 118.936 13.4 117.496 13.4C115.426 13.4 113.656 14.06 112.186 15.38C110.746 16.7 109.921 18.53 109.711 20.87H125.281ZM145.383 22.58C145.383 20.06 145.893 17.855 146.913 15.965C147.933 14.045 149.328 12.56 151.098 11.51C152.898 10.46 154.893 9.935 157.083 9.935C159.243 9.935 161.118 10.4 162.708 11.33C164.298 12.26 165.483 13.43 166.263 14.84V10.34H170.403V35H166.263V30.41C165.453 31.85 164.238 33.05 162.618 34.01C161.028 34.94 159.168 35.405 157.038 35.405C154.848 35.405 152.868 34.865 151.098 33.785C149.328 32.705 147.933 31.19 146.913 29.24C145.893 27.29 145.383 25.07 145.383 22.58ZM166.263 22.625C166.263 20.765 165.888 19.145 165.138 17.765C164.388 16.385 163.368 15.335 162.078 14.615C160.818 13.865 159.423 13.49 157.893 13.49C156.363 13.49 154.968 13.85 153.708 14.57C152.448 15.29 151.443 16.34 150.693 17.72C149.943 19.1 149.568 20.72 149.568 22.58C149.568 24.47 149.943 26.12 150.693 27.53C151.443 28.91 152.448 29.975 153.708 30.725C154.968 31.445 156.363 31.805 157.893 31.805C159.423 31.805 160.818 31.445 162.078 30.725C163.368 29.975 164.388 28.91 165.138 27.53C165.888 26.12 166.263 24.485 166.263 22.625ZM181.418 14.345C182.138 12.935 183.158 11.84 184.478 11.06C185.828 10.28 187.463 9.89 189.383 9.89V14.12H188.303C183.713 14.12 181.418 16.61 181.418 21.59V35H177.323V10.34H181.418V14.345ZM216.611 21.725C216.611 22.505 216.566 23.33 216.476 24.2H196.766C196.916 26.63 197.741 28.535 199.241 29.915C200.771 31.265 202.616 31.94 204.776 31.94C206.546 31.94 208.016 31.535 209.186 30.725C210.386 29.885 211.226 28.775 211.706 27.395H216.116C215.456 29.765 214.136 31.7 212.156 33.2C210.176 34.67 207.716 35.405 204.776 35.405C202.436 35.405 200.336 34.88 198.476 33.83C196.646 32.78 195.206 31.295 194.156 29.375C193.106 27.425 192.581 25.175 192.581 22.625C192.581 20.075 193.091 17.84 194.111 15.92C195.131 14 196.556 12.53 198.386 11.51C200.246 10.46 202.376 9.935 204.776 9.935C207.116 9.935 209.186 10.445 210.986 11.465C212.786 12.485 214.166 13.895 215.126 15.695C216.116 17.465 216.611 19.475 216.611 21.725ZM212.381 20.87C212.381 19.31 212.036 17.975 211.346 16.865C210.656 15.725 209.711 14.87 208.511 14.3C207.341 13.7 206.036 13.4 204.596 13.4C202.526 13.4 200.756 14.06 199.286 15.38C197.846 16.7 197.021 18.53 196.811 20.87H212.381ZM239.008 13.715V28.25C239.008 29.45 239.263 30.305 239.773 30.815C240.283 31.295 241.168 31.535 242.428 31.535H245.443V35H241.753C239.473 35 237.763 34.475 236.623 33.425C235.483 32.375 234.913 30.65 234.913 28.25V13.715H231.718V10.34H234.913V4.13H239.008V10.34H245.443V13.715H239.008ZM262.644 9.89C264.504 9.89 266.184 10.295 267.684 11.105C269.184 11.885 270.354 13.07 271.194 14.66C272.064 16.25 272.499 18.185 272.499 20.465V35H268.449V21.05C268.449 18.59 267.834 16.715 266.604 15.425C265.374 14.105 263.694 13.445 261.564 13.445C259.404 13.445 257.679 14.12 256.389 15.47C255.129 16.82 254.499 18.785 254.499 21.365V35H250.404V1.7H254.499V13.85C255.309 12.59 256.419 11.615 257.829 10.925C259.269 10.235 260.874 9.89 262.644 9.89ZM301.689 21.725C301.689 22.505 301.644 23.33 301.554 24.2H281.844C281.994 26.63 282.819 28.535 284.319 29.915C285.849 31.265 287.694 31.94 289.854 31.94C291.624 31.94 293.094 31.535 294.264 30.725C295.464 29.885 296.304 28.775 296.784 27.395H301.194C300.534 29.765 299.214 31.7 297.234 33.2C295.254 34.67 292.794 35.405 289.854 35.405C287.514 35.405 285.414 34.88 283.554 33.83C281.724 32.78 280.284 31.295 279.234 29.375C278.184 27.425 277.659 25.175 277.659 22.625C277.659 20.075 278.169 17.84 279.189 15.92C280.209 14 281.634 12.53 283.464 11.51C285.324 10.46 287.454 9.935 289.854 9.935C292.194 9.935 294.264 10.445 296.064 11.465C297.864 12.485 299.244 13.895 300.204 15.695C301.194 17.465 301.689 19.475 301.689 21.725ZM297.459 20.87C297.459 19.31 297.114 17.975 296.424 16.865C295.734 15.725 294.789 14.87 293.589 14.3C292.419 13.7 291.114 13.4 289.674 13.4C287.604 13.4 285.834 14.06 284.364 15.38C282.924 16.7 282.099 18.53 281.889 20.87H297.459ZM327.821 35.405C325.931 35.405 324.236 35.09 322.736 34.46C321.236 33.8 320.051 32.9 319.181 31.76C318.311 30.59 317.831 29.255 317.741 27.755H321.971C322.091 28.985 322.661 29.99 323.681 30.77C324.731 31.55 326.096 31.94 327.776 31.94C329.336 31.94 330.566 31.595 331.466 30.905C332.366 30.215 332.816 29.345 332.816 28.295C332.816 27.215 332.336 26.42 331.376 25.91C330.416 25.37 328.931 24.845 326.921 24.335C325.091 23.855 323.591 23.375 322.421 22.895C321.281 22.385 320.291 21.65 319.451 20.69C318.641 19.7 318.236 18.41 318.236 16.82C318.236 15.56 318.611 14.405 319.361 13.355C320.111 12.305 321.176 11.48 322.556 10.88C323.936 10.25 325.511 9.935 327.281 9.935C330.011 9.935 332.216 10.625 333.896 12.005C335.576 13.385 336.476 15.275 336.596 17.675H332.501C332.411 16.385 331.886 15.35 330.926 14.57C329.996 13.79 328.736 13.4 327.146 13.4C325.676 13.4 324.506 13.715 323.636 14.345C322.766 14.975 322.331 15.8 322.331 16.82C322.331 17.63 322.586 18.305 323.096 18.845C323.636 19.355 324.296 19.775 325.076 20.105C325.886 20.405 326.996 20.75 328.406 21.14C330.176 21.62 331.616 22.1 332.726 22.58C333.836 23.03 334.781 23.72 335.561 24.65C336.371 25.58 336.791 26.795 336.821 28.295C336.821 29.645 336.446 30.86 335.696 31.94C334.946 33.02 333.881 33.875 332.501 34.505C331.151 35.105 329.591 35.405 327.821 35.405ZM353.357 35.405C351.047 35.405 348.947 34.88 347.057 33.83C345.197 32.78 343.727 31.295 342.647 29.375C341.597 27.425 341.072 25.175 341.072 22.625C341.072 20.105 341.612 17.885 342.692 15.965C343.802 14.015 345.302 12.53 347.192 11.51C349.082 10.46 351.197 9.935 353.537 9.935C355.877 9.935 357.992 10.46 359.882 11.51C361.772 12.53 363.257 14 364.337 15.92C365.447 17.84 366.002 20.075 366.002 22.625C366.002 25.175 365.432 27.425 364.292 29.375C363.182 31.295 361.667 32.78 359.747 33.83C357.827 34.88 355.697 35.405 353.357 35.405ZM353.357 31.805C354.827 31.805 356.207 31.46 357.497 30.77C358.787 30.08 359.822 29.045 360.602 27.665C361.412 26.285 361.817 24.605 361.817 22.625C361.817 20.645 361.427 18.965 360.647 17.585C359.867 16.205 358.847 15.185 357.587 14.525C356.327 13.835 354.962 13.49 353.492 13.49C351.992 13.49 350.612 13.835 349.352 14.525C348.122 15.185 347.132 16.205 346.382 17.585C345.632 18.965 345.257 20.645 345.257 22.625C345.257 24.635 345.617 26.33 346.337 27.71C347.087 29.09 348.077 30.125 349.307 30.815C350.537 31.475 351.887 31.805 353.357 31.805ZM369.856 22.625C369.856 20.075 370.366 17.855 371.386 15.965C372.406 14.045 373.816 12.56 375.616 11.51C377.446 10.46 379.531 9.935 381.871 9.935C384.901 9.935 387.391 10.67 389.341 12.14C391.321 13.61 392.626 15.65 393.256 18.26H388.846C388.426 16.76 387.601 15.575 386.371 14.705C385.171 13.835 383.671 13.4 381.871 13.4C379.531 13.4 377.641 14.21 376.201 15.83C374.761 17.42 374.041 19.685 374.041 22.625C374.041 25.595 374.761 27.89 376.201 29.51C377.641 31.13 379.531 31.94 381.871 31.94C383.671 31.94 385.171 31.52 386.371 30.68C387.571 29.84 388.396 28.64 388.846 27.08H393.256C392.596 29.6 391.276 31.625 389.296 33.155C387.316 34.655 384.841 35.405 381.871 35.405C379.531 35.405 377.446 34.88 375.616 33.83C373.816 32.78 372.406 31.295 371.386 29.375C370.366 27.455 369.856 25.205 369.856 22.625ZM400.835 6.335C400.055 6.335 399.395 6.065 398.855 5.525C398.315 4.985 398.045 4.325 398.045 3.545C398.045 2.765 398.315 2.105 398.855 1.565C399.395 1.025 400.055 0.754998 400.835 0.754998C401.585 0.754998 402.215 1.025 402.725 1.565C403.265 2.105 403.535 2.765 403.535 3.545C403.535 4.325 403.265 4.985 402.725 5.525C402.215 6.065 401.585 6.335 400.835 6.335ZM402.815 10.34V35H398.72V10.34H402.815ZM408.264 22.58C408.264 20.06 408.774 17.855 409.794 15.965C410.814 14.045 412.209 12.56 413.979 11.51C415.779 10.46 417.774 9.935 419.964 9.935C422.124 9.935 423.999 10.4 425.589 11.33C427.179 12.26 428.364 13.43 429.144 14.84V10.34H433.284V35H429.144V30.41C428.334 31.85 427.119 33.05 425.499 34.01C423.909 34.94 422.049 35.405 419.919 35.405C417.729 35.405 415.749 34.865 413.979 33.785C412.209 32.705 410.814 31.19 409.794 29.24C408.774 27.29 408.264 25.07 408.264 22.58ZM429.144 22.625C429.144 20.765 428.769 19.145 428.019 17.765C427.269 16.385 426.249 15.335 424.959 14.615C423.699 13.865 422.304 13.49 420.774 13.49C419.244 13.49 417.849 13.85 416.589 14.57C415.329 15.29 414.324 16.34 413.574 17.72C412.824 19.1 412.449 20.72 412.449 22.58C412.449 24.47 412.824 26.12 413.574 27.53C414.324 28.91 415.329 29.975 416.589 30.725C417.849 31.445 419.244 31.805 420.774 31.805C422.304 31.805 423.699 31.445 424.959 30.725C426.249 29.975 427.269 28.91 428.019 27.53C428.769 26.12 429.144 24.485 429.144 22.625ZM444.299 1.7V35H440.204V1.7H444.299ZM467.371 14.885C468.181 13.475 469.381 12.305 470.971 11.375C472.591 10.415 474.466 9.935 476.596 9.935C478.786 9.935 480.766 10.46 482.536 11.51C484.336 12.56 485.746 14.045 486.766 15.965C487.786 17.855 488.296 20.06 488.296 22.58C488.296 25.07 487.786 27.29 486.766 29.24C485.746 31.19 484.336 32.705 482.536 33.785C480.766 34.865 478.786 35.405 476.596 35.405C474.496 35.405 472.636 34.94 471.016 34.01C469.426 33.05 468.211 31.865 467.371 30.455V46.7H463.276V10.34H467.371V14.885ZM484.111 22.58C484.111 20.72 483.736 19.1 482.986 17.72C482.236 16.34 481.216 15.29 479.926 14.57C478.666 13.85 477.271 13.49 475.741 13.49C474.241 13.49 472.846 13.865 471.556 14.615C470.296 15.335 469.276 16.4 468.496 17.81C467.746 19.19 467.371 20.795 467.371 22.625C467.371 24.485 467.746 26.12 468.496 27.53C469.276 28.91 470.296 29.975 471.556 30.725C472.846 31.445 474.241 31.805 475.741 31.805C477.271 31.805 478.666 31.445 479.926 30.725C481.216 29.975 482.236 28.91 482.986 27.53C483.736 26.12 484.111 24.47 484.111 22.58ZM497.781 1.7V35H493.686V1.7H497.781ZM503.23 22.58C503.23 20.06 503.74 17.855 504.76 15.965C505.78 14.045 507.175 12.56 508.945 11.51C510.745 10.46 512.74 9.935 514.93 9.935C517.09 9.935 518.965 10.4 520.555 11.33C522.145 12.26 523.33 13.43 524.11 14.84V10.34H528.25V35H524.11V30.41C523.3 31.85 522.085 33.05 520.465 34.01C518.875 34.94 517.015 35.405 514.885 35.405C512.695 35.405 510.715 34.865 508.945 33.785C507.175 32.705 505.78 31.19 504.76 29.24C503.74 27.29 503.23 25.07 503.23 22.58ZM524.11 22.625C524.11 20.765 523.735 19.145 522.985 17.765C522.235 16.385 521.215 15.335 519.925 14.615C518.665 13.865 517.27 13.49 515.74 13.49C514.21 13.49 512.815 13.85 511.555 14.57C510.295 15.29 509.29 16.34 508.54 17.72C507.79 19.1 507.415 20.72 507.415 22.58C507.415 24.47 507.79 26.12 508.54 27.53C509.29 28.91 510.295 29.975 511.555 30.725C512.815 31.445 514.21 31.805 515.74 31.805C517.27 31.805 518.665 31.445 519.925 30.725C521.215 29.975 522.235 28.91 522.985 27.53C523.735 26.12 524.11 24.485 524.11 22.625ZM540.165 13.715V28.25C540.165 29.45 540.42 30.305 540.93 30.815C541.44 31.295 542.325 31.535 543.585 31.535H546.6V35H542.91C540.63 35 538.92 34.475 537.78 33.425C536.64 32.375 536.07 30.65 536.07 28.25V13.715H532.875V10.34H536.07V4.13H540.165V10.34H546.6V13.715H540.165ZM561.597 13.715H556.422V35H552.327V13.715H549.132V10.34H552.327V8.585C552.327 5.825 553.032 3.815 554.442 2.555C555.882 1.265 558.177 0.619997 561.327 0.619997V4.04C559.527 4.04 558.252 4.4 557.502 5.12C556.782 5.81 556.422 6.965 556.422 8.585V10.34H561.597V13.715ZM577.126 35.405C574.816 35.405 572.716 34.88 570.826 33.83C568.966 32.78 567.496 31.295 566.416 29.375C565.366 27.425 564.841 25.175 564.841 22.625C564.841 20.105 565.381 17.885 566.461 15.965C567.571 14.015 569.071 12.53 570.961 11.51C572.851 10.46 574.966 9.935 577.306 9.935C579.646 9.935 581.761 10.46 583.651 11.51C585.541 12.53 587.026 14 588.106 15.92C589.216 17.84 589.771 20.075 589.771 22.625C589.771 25.175 589.201 27.425 588.061 29.375C586.951 31.295 585.436 32.78 583.516 33.83C581.596 34.88 579.466 35.405 577.126 35.405ZM577.126 31.805C578.596 31.805 579.976 31.46 581.266 30.77C582.556 30.08 583.591 29.045 584.371 27.665C585.181 26.285 585.586 24.605 585.586 22.625C585.586 20.645 585.196 18.965 584.416 17.585C583.636 16.205 582.616 15.185 581.356 14.525C580.096 13.835 578.731 13.49 577.261 13.49C575.761 13.49 574.381 13.835 573.121 14.525C571.891 15.185 570.901 16.205 570.151 17.585C569.401 18.965 569.026 20.645 569.026 22.625C569.026 24.635 569.386 26.33 570.106 27.71C570.856 29.09 571.846 30.125 573.076 30.815C574.306 31.475 575.656 31.805 577.126 31.805ZM599.25 14.345C599.97 12.935 600.99 11.84 602.31 11.06C603.66 10.28 605.295 9.89 607.215 9.89V14.12H606.135C601.545 14.12 599.25 16.61 599.25 21.59V35H595.155V10.34H599.25V14.345ZM641.598 9.89C643.518 9.89 645.228 10.295 646.728 11.105C648.228 11.885 649.413 13.07 650.283 14.66C651.153 16.25 651.588 18.185 651.588 20.465V35H647.538V21.05C647.538 18.59 646.923 16.715 645.693 15.425C644.493 14.105 642.858 13.445 640.788 13.445C638.658 13.445 636.963 14.135 635.703 15.515C634.443 16.865 633.813 18.83 633.813 21.41V35H629.763V21.05C629.763 18.59 629.148 16.715 627.918 15.425C626.718 14.105 625.083 13.445 623.013 13.445C620.883 13.445 619.188 14.135 617.928 15.515C616.668 16.865 616.038 18.83 616.038 21.41V35H611.943V10.34H616.038V13.895C616.848 12.605 617.928 11.615 619.278 10.925C620.658 10.235 622.173 9.89 623.823 9.89C625.893 9.89 627.723 10.355 629.313 11.285C630.903 12.215 632.088 13.58 632.868 15.38C633.558 13.64 634.698 12.29 636.288 11.33C637.878 10.37 639.648 9.89 641.598 9.89ZM667.035 35.405C665.145 35.405 663.45 35.09 661.95 34.46C660.45 33.8 659.265 32.9 658.395 31.76C657.525 30.59 657.045 29.255 656.955 27.755H661.185C661.305 28.985 661.875 29.99 662.895 30.77C663.945 31.55 665.31 31.94 666.99 31.94C668.55 31.94 669.78 31.595 670.68 30.905C671.58 30.215 672.03 29.345 672.03 28.295C672.03 27.215 671.55 26.42 670.59 25.91C669.63 25.37 668.145 24.845 666.135 24.335C664.305 23.855 662.805 23.375 661.635 22.895C660.495 22.385 659.505 21.65 658.665 20.69C657.855 19.7 657.45 18.41 657.45 16.82C657.45 15.56 657.825 14.405 658.575 13.355C659.325 12.305 660.39 11.48 661.77 10.88C663.15 10.25 664.725 9.935 666.495 9.935C669.225 9.935 671.43 10.625 673.11 12.005C674.79 13.385 675.69 15.275 675.81 17.675H671.715C671.625 16.385 671.1 15.35 670.14 14.57C669.21 13.79 667.95 13.4 666.36 13.4C664.89 13.4 663.72 13.715 662.85 14.345C661.98 14.975 661.545 15.8 661.545 16.82C661.545 17.63 661.8 18.305 662.31 18.845C662.85 19.355 663.51 19.775 664.29 20.105C665.1 20.405 666.21 20.75 667.62 21.14C669.39 21.62 670.83 22.1 671.94 22.58C673.05 23.03 673.995 23.72 674.775 24.65C675.585 25.58 676.005 26.795 676.035 28.295C676.035 29.645 675.66 30.86 674.91 31.94C674.16 33.02 673.095 33.875 671.715 34.505C670.365 35.105 668.805 35.405 667.035 35.405Z" fill="black"/>
</svg>
