<svg width="404" height="177" viewBox="0 0 404 177" fill="none" xmlns="http://www.w3.org/2000/svg">
<path d="M30.648 97L23.676 85.03H19.056V97H15.234V67.726H24.684C26.896 67.726 28.758 68.104 30.27 68.86C31.81 69.616 32.958 70.638 33.714 71.926C34.47 73.214 34.848 74.684 34.848 76.336C34.848 78.352 34.26 80.13 33.084 81.67C31.936 83.21 30.2 84.232 27.876 84.736L35.226 97H30.648ZM19.056 81.964H24.684C26.756 81.964 28.31 81.46 29.346 80.452C30.382 79.416 30.9 78.044 30.9 76.336C30.9 74.6 30.382 73.256 29.346 72.304C28.338 71.352 26.784 70.876 24.684 70.876H19.056V81.964ZM61.1987 73.984V97H57.3767V93.598C56.6487 94.774 55.6267 95.698 54.3107 96.37C53.0227 97.014 51.5947 97.336 50.0267 97.336C48.2347 97.336 46.6247 96.972 45.1967 96.244C43.7687 95.488 42.6347 94.368 41.7947 92.884C40.9827 91.4 40.5767 89.594 40.5767 87.466V73.984H44.3567V86.962C44.3567 89.23 44.9307 90.98 46.0787 92.212C47.2267 93.416 48.7947 94.018 50.7827 94.018C52.8267 94.018 54.4367 93.388 55.6127 92.128C56.7887 90.868 57.3767 89.034 57.3767 86.626V73.984H61.1987ZM78.866 73.564C81.666 73.564 83.934 74.418 85.67 76.126C87.406 77.806 88.274 80.242 88.274 83.434V97H84.494V83.98C84.494 81.684 83.92 79.934 82.772 78.73C81.624 77.498 80.056 76.882 78.068 76.882C76.052 76.882 74.442 77.512 73.238 78.772C72.062 80.032 71.474 81.866 71.474 84.274V97H67.652V73.984H71.474V77.26C72.23 76.084 73.252 75.174 74.54 74.53C75.856 73.886 77.298 73.564 78.866 73.564ZM105.731 73.564C108.531 73.564 110.799 74.418 112.535 76.126C114.271 77.806 115.139 80.242 115.139 83.434V97H111.359V83.98C111.359 81.684 110.785 79.934 109.637 78.73C108.489 77.498 106.921 76.882 104.933 76.882C102.917 76.882 101.307 77.512 100.103 78.772C98.9272 80.032 98.3392 81.866 98.3392 84.274V97H94.5172V73.984H98.3392V77.26C99.0952 76.084 100.117 75.174 101.405 74.53C102.721 73.886 104.163 73.564 105.731 73.564ZM142.382 84.61C142.382 85.338 142.34 86.108 142.256 86.92H123.86C124 89.188 124.77 90.966 126.17 92.254C127.598 93.514 129.32 94.144 131.336 94.144C132.988 94.144 134.36 93.766 135.452 93.01C136.572 92.226 137.356 91.19 137.804 89.902H141.92C141.304 92.114 140.072 93.92 138.224 95.32C136.376 96.692 134.08 97.378 131.336 97.378C129.152 97.378 127.192 96.888 125.456 95.908C123.748 94.928 122.404 93.542 121.424 91.75C120.444 89.93 119.954 87.83 119.954 85.45C119.954 83.07 120.43 80.984 121.382 79.192C122.334 77.4 123.664 76.028 125.372 75.076C127.108 74.096 129.096 73.606 131.336 73.606C133.52 73.606 135.452 74.082 137.132 75.034C138.812 75.986 140.1 77.302 140.996 78.982C141.92 80.634 142.382 82.51 142.382 84.61ZM138.434 83.812C138.434 82.356 138.112 81.11 137.468 80.074C136.824 79.01 135.942 78.212 134.822 77.68C133.73 77.12 132.512 76.84 131.168 76.84C129.236 76.84 127.584 77.456 126.212 78.688C124.868 79.92 124.098 81.628 123.902 83.812H138.434ZM151.249 77.722C151.921 76.406 152.873 75.384 154.105 74.656C155.365 73.928 156.891 73.564 158.683 73.564V77.512H157.675C153.391 77.512 151.249 79.836 151.249 84.484V97H147.427V73.984H151.249V77.722ZM172.865 85.408C172.865 83.056 173.341 80.998 174.293 79.234C175.245 77.442 176.547 76.056 178.199 75.076C179.879 74.096 181.741 73.606 183.785 73.606C185.801 73.606 187.551 74.04 189.035 74.908C190.519 75.776 191.625 76.868 192.353 78.184V73.984H196.217V97H192.353V92.716C191.597 94.06 190.463 95.18 188.951 96.076C187.467 96.944 185.731 97.378 183.743 97.378C181.699 97.378 179.851 96.874 178.199 95.866C176.547 94.858 175.245 93.444 174.293 91.624C173.341 89.804 172.865 87.732 172.865 85.408ZM192.353 85.45C192.353 83.714 192.003 82.202 191.303 80.914C190.603 79.626 189.651 78.646 188.447 77.974C187.271 77.274 185.969 76.924 184.541 76.924C183.113 76.924 181.811 77.26 180.635 77.932C179.459 78.604 178.521 79.584 177.821 80.872C177.121 82.16 176.771 83.672 176.771 85.408C176.771 87.172 177.121 88.712 177.821 90.028C178.521 91.316 179.459 92.31 180.635 93.01C181.811 93.682 183.113 94.018 184.541 94.018C185.969 94.018 187.271 93.682 188.447 93.01C189.651 92.31 190.603 91.316 191.303 90.028C192.003 88.712 192.353 87.186 192.353 85.45ZM201.247 85.408C201.247 83.056 201.723 80.998 202.675 79.234C203.627 77.442 204.929 76.056 206.581 75.076C208.261 74.096 210.137 73.606 212.209 73.606C214.001 73.606 215.667 74.026 217.207 74.866C218.747 75.678 219.923 76.756 220.735 78.1V65.92H224.599V97H220.735V92.674C219.979 94.046 218.859 95.18 217.375 96.076C215.891 96.944 214.155 97.378 212.167 97.378C210.123 97.378 208.261 96.874 206.581 95.866C204.929 94.858 203.627 93.444 202.675 91.624C201.723 89.804 201.247 87.732 201.247 85.408ZM220.735 85.45C220.735 83.714 220.385 82.202 219.685 80.914C218.985 79.626 218.033 78.646 216.829 77.974C215.653 77.274 214.351 76.924 212.923 76.924C211.495 76.924 210.193 77.26 209.017 77.932C207.841 78.604 206.903 79.584 206.203 80.872C205.503 82.16 205.153 83.672 205.153 85.408C205.153 87.172 205.503 88.712 206.203 90.028C206.903 91.316 207.841 92.31 209.017 93.01C210.193 93.682 211.495 94.018 212.923 94.018C214.351 94.018 215.653 93.682 216.829 93.01C218.033 92.31 218.985 91.316 219.685 90.028C220.385 88.712 220.735 87.186 220.735 85.45ZM229.63 85.408C229.63 83.056 230.106 80.998 231.058 79.234C232.01 77.442 233.312 76.056 234.964 75.076C236.644 74.096 238.52 73.606 240.592 73.606C242.384 73.606 244.05 74.026 245.59 74.866C247.13 75.678 248.306 76.756 249.118 78.1V65.92H252.982V97H249.118V92.674C248.362 94.046 247.242 95.18 245.758 96.076C244.274 96.944 242.538 97.378 240.55 97.378C238.506 97.378 236.644 96.874 234.964 95.866C233.312 94.858 232.01 93.444 231.058 91.624C230.106 89.804 229.63 87.732 229.63 85.408ZM249.118 85.45C249.118 83.714 248.768 82.202 248.068 80.914C247.368 79.626 246.416 78.646 245.212 77.974C244.036 77.274 242.734 76.924 241.306 76.924C239.878 76.924 238.576 77.26 237.4 77.932C236.224 78.604 235.286 79.584 234.586 80.872C233.886 82.16 233.536 83.672 233.536 85.408C233.536 87.172 233.886 88.712 234.586 90.028C235.286 91.316 236.224 92.31 237.4 93.01C238.576 93.682 239.878 94.018 241.306 94.018C242.734 94.018 244.036 93.682 245.212 93.01C246.416 92.31 247.368 91.316 248.068 90.028C248.768 88.712 249.118 87.186 249.118 85.45ZM261.415 70.246C260.687 70.246 260.071 69.994 259.567 69.49C259.063 68.986 258.811 68.37 258.811 67.642C258.811 66.914 259.063 66.298 259.567 65.794C260.071 65.29 260.687 65.038 261.415 65.038C262.115 65.038 262.703 65.29 263.179 65.794C263.683 66.298 263.935 66.914 263.935 67.642C263.935 68.37 263.683 68.986 263.179 69.49C262.703 69.994 262.115 70.246 261.415 70.246ZM263.263 73.984V97H259.441V73.984H263.263ZM268.349 85.45C268.349 83.07 268.825 80.998 269.777 79.234C270.729 77.442 272.045 76.056 273.725 75.076C275.433 74.096 277.379 73.606 279.563 73.606C282.391 73.606 284.715 74.292 286.535 75.664C288.383 77.036 289.601 78.94 290.189 81.376H286.073C285.681 79.976 284.911 78.87 283.763 78.058C282.643 77.246 281.243 76.84 279.563 76.84C277.379 76.84 275.615 77.596 274.271 79.108C272.927 80.592 272.255 82.706 272.255 85.45C272.255 88.222 272.927 90.364 274.271 91.876C275.615 93.388 277.379 94.144 279.563 94.144C281.243 94.144 282.643 93.752 283.763 92.968C284.883 92.184 285.653 91.064 286.073 89.608H290.189C289.573 91.96 288.341 93.85 286.493 95.278C284.645 96.678 282.335 97.378 279.563 97.378C277.379 97.378 275.433 96.888 273.725 95.908C272.045 94.928 270.729 93.542 269.777 91.75C268.825 89.958 268.349 87.858 268.349 85.45ZM299.951 77.134V90.7C299.951 91.82 300.189 92.618 300.665 93.094C301.141 93.542 301.967 93.766 303.143 93.766H305.957V97H302.513C300.385 97 298.789 96.51 297.725 95.53C296.661 94.55 296.129 92.94 296.129 90.7V77.134H293.147V73.984H296.129V68.188H299.951V73.984H305.957V77.134H299.951Z" fill="white"/>
<path d="M394.31 74.0698C399.062 77.6711 399.062 84.8137 394.31 88.4151L325.38 140.659C319.453 145.151 310.944 140.924 310.944 133.486V28.9986C310.944 21.5612 319.453 17.3335 325.38 21.8259L394.31 74.0698Z" fill="white"/>
<line y1="101.5" x2="308" y2="101.5" stroke="#E45858"/>
<path d="M358.344 96.375H345.941C344.103 96.375 342.419 95.6719 341.041 94.5469L321.594 76.6875L332.312 65.4375C332.312 70.9219 338.591 76.6875 344.562 76.6875H346.094C345.941 83.0156 348.544 87.6563 355.281 89.625C355.741 89.7656 356.047 89.9062 356.506 89.9062C358.344 90.3281 359.569 92.1563 359.109 93.8438L358.344 96.375Z" stroke="black" stroke-width="2" stroke-miterlimit="10" stroke-linecap="round" stroke-linejoin="round"/>
<path d="M318.531 79.5L339.509 98.7656C340.734 99.8906 342.572 100.594 344.409 100.594H358.344" stroke="black" stroke-width="2" stroke-miterlimit="10" stroke-linecap="round" stroke-linejoin="round"/>
<path d="M333.078 80.9062C334.347 80.9062 335.375 79.9619 335.375 78.7969C335.375 77.6319 334.347 76.6875 333.078 76.6875C331.81 76.6875 330.781 77.6319 330.781 78.7969C330.781 79.9619 331.81 80.9062 333.078 80.9062Z" stroke="black" stroke-width="2" stroke-miterlimit="10" stroke-linecap="round" stroke-linejoin="round"/>
<path d="M339.969 83.7188H346.859" stroke="black" stroke-width="2" stroke-miterlimit="10" stroke-linecap="round" stroke-linejoin="round"/>
<path d="M343.031 87.9375H351.453" stroke="black" stroke-width="2" stroke-miterlimit="10" stroke-linecap="round" stroke-linejoin="round"/>
<path d="M359.875 58.4062L348.697 68.6719C346.094 71.0625 345.175 74.4375 346.094 77.6719" stroke="black" stroke-width="2" stroke-miterlimit="10" stroke-linecap="round" stroke-linejoin="round"/>
<path d="M332.312 66.8438C335.222 66 337.825 64.0312 339.356 61.6406L341.5 58.4062" stroke="black" stroke-width="2" stroke-miterlimit="10" stroke-linecap="round" stroke-linejoin="round"/>
</svg>
