<svg width="535" height="99" viewBox="0 0 535 99" fill="none" xmlns="http://www.w3.org/2000/svg">
<path d="M42.304 73L31.348 54.19H24.088V73H18.082V26.998H32.932C36.408 26.998 39.334 27.592 41.71 28.78C44.13 29.968 45.934 31.574 47.122 33.598C48.31 35.622 48.904 37.932 48.904 40.528C48.904 43.696 47.98 46.49 46.132 48.91C44.328 51.33 41.6 52.936 37.948 53.728L49.498 73H42.304ZM24.088 49.372H32.932C36.188 49.372 38.63 48.58 40.258 46.996C41.886 45.368 42.7 43.212 42.7 40.528C42.7 37.8 41.886 35.688 40.258 34.192C38.674 32.696 36.232 31.948 32.932 31.948H24.088V49.372ZM90.3123 36.832V73H84.3063V67.654C83.1623 69.502 81.5563 70.954 79.4883 72.01C77.4643 73.022 75.2203 73.528 72.7563 73.528C69.9403 73.528 67.4103 72.956 65.1663 71.812C62.9223 70.624 61.1403 68.864 59.8203 66.532C58.5443 64.2 57.9063 61.362 57.9063 58.018V36.832H63.8463V57.226C63.8463 60.79 64.7483 63.54 66.5523 65.476C68.3563 67.368 70.8203 68.314 73.9443 68.314C77.1563 68.314 79.6863 67.324 81.5343 65.344C83.3823 63.364 84.3063 60.482 84.3063 56.698V36.832H90.3123ZM118.075 36.172C122.475 36.172 126.039 37.514 128.767 40.198C131.495 42.838 132.859 46.666 132.859 51.682V73H126.919V52.54C126.919 48.932 126.017 46.182 124.213 44.29C122.409 42.354 119.945 41.386 116.821 41.386C113.653 41.386 111.123 42.376 109.231 44.356C107.383 46.336 106.459 49.218 106.459 53.002V73H100.453V36.832H106.459V41.98C107.647 40.132 109.253 38.702 111.277 37.69C113.345 36.678 115.611 36.172 118.075 36.172ZM160.292 36.172C164.692 36.172 168.256 37.514 170.984 40.198C173.712 42.838 175.076 46.666 175.076 51.682V73H169.136V52.54C169.136 48.932 168.234 46.182 166.43 44.29C164.626 42.354 162.162 41.386 159.038 41.386C155.87 41.386 153.34 42.376 151.448 44.356C149.6 46.336 148.676 49.218 148.676 53.002V73H142.67V36.832H148.676V41.98C149.864 40.132 151.47 38.702 153.494 37.69C155.562 36.678 157.828 36.172 160.292 36.172ZM217.887 53.53C217.887 54.674 217.821 55.884 217.689 57.16H188.781C189.001 60.724 190.211 63.518 192.411 65.542C194.655 67.522 197.361 68.512 200.529 68.512C203.125 68.512 205.281 67.918 206.997 66.73C208.757 65.498 209.989 63.87 210.693 61.846H217.161C216.193 65.322 214.257 68.16 211.353 70.36C208.449 72.516 204.841 73.594 200.529 73.594C197.097 73.594 194.017 72.824 191.289 71.284C188.605 69.744 186.493 67.566 184.953 64.75C183.413 61.89 182.643 58.59 182.643 54.85C182.643 51.11 183.391 47.832 184.887 45.016C186.383 42.2 188.473 40.044 191.157 38.548C193.885 37.008 197.009 36.238 200.529 36.238C203.961 36.238 206.997 36.986 209.637 38.482C212.277 39.978 214.301 42.046 215.709 44.686C217.161 47.282 217.887 50.23 217.887 53.53ZM211.683 52.276C211.683 49.988 211.177 48.03 210.165 46.402C209.153 44.73 207.767 43.476 206.007 42.64C204.291 41.76 202.377 41.32 200.265 41.32C197.229 41.32 194.633 42.288 192.477 44.224C190.365 46.16 189.155 48.844 188.847 52.276H211.683ZM231.82 42.706C232.876 40.638 234.372 39.032 236.308 37.888C238.288 36.744 240.686 36.172 243.502 36.172V42.376H241.918C235.186 42.376 231.82 46.028 231.82 53.332V73H225.814V36.832H231.82V42.706Z" fill="black"/>
<path d="M289.274 62.77H269.21L265.514 73H259.178L275.81 27.262H282.74L299.306 73H292.97L289.274 62.77ZM287.558 57.886L279.242 34.654L270.926 57.886H287.558ZM304.311 54.784C304.311 51.088 305.059 47.854 306.555 45.082C308.051 42.266 310.097 40.088 312.693 38.548C315.333 37.008 318.281 36.238 321.537 36.238C324.353 36.238 326.971 36.898 329.391 38.218C331.811 39.494 333.659 41.188 334.935 43.3V24.16H341.007V73H334.935V66.202C333.747 68.358 331.987 70.14 329.655 71.548C327.323 72.912 324.595 73.594 321.471 73.594C318.259 73.594 315.333 72.802 312.693 71.218C310.097 69.634 308.051 67.412 306.555 64.552C305.059 61.692 304.311 58.436 304.311 54.784ZM334.935 54.85C334.935 52.122 334.385 49.746 333.285 47.722C332.185 45.698 330.689 44.158 328.797 43.102C326.949 42.002 324.903 41.452 322.659 41.452C320.415 41.452 318.369 41.98 316.521 43.036C314.673 44.092 313.199 45.632 312.099 47.656C310.999 49.68 310.449 52.056 310.449 54.784C310.449 57.556 310.999 59.976 312.099 62.044C313.199 64.068 314.673 65.63 316.521 66.73C318.369 67.786 320.415 68.314 322.659 68.314C324.903 68.314 326.949 67.786 328.797 66.73C330.689 65.63 332.185 64.068 333.285 62.044C334.385 59.976 334.935 57.578 334.935 54.85ZM348.912 54.784C348.912 51.088 349.66 47.854 351.156 45.082C352.652 42.266 354.698 40.088 357.294 38.548C359.934 37.008 362.882 36.238 366.138 36.238C368.954 36.238 371.572 36.898 373.992 38.218C376.412 39.494 378.26 41.188 379.536 43.3V24.16H385.608V73H379.536V66.202C378.348 68.358 376.588 70.14 374.256 71.548C371.924 72.912 369.196 73.594 366.072 73.594C362.86 73.594 359.934 72.802 357.294 71.218C354.698 69.634 352.652 67.412 351.156 64.552C349.66 61.692 348.912 58.436 348.912 54.784ZM379.536 54.85C379.536 52.122 378.986 49.746 377.886 47.722C376.786 45.698 375.29 44.158 373.398 43.102C371.55 42.002 369.504 41.452 367.26 41.452C365.016 41.452 362.97 41.98 361.122 43.036C359.274 44.092 357.8 45.632 356.7 47.656C355.6 49.68 355.05 52.056 355.05 54.784C355.05 57.556 355.6 59.976 356.7 62.044C357.8 64.068 359.274 65.63 361.122 66.73C362.97 67.786 365.016 68.314 367.26 68.314C369.504 68.314 371.55 67.786 373.398 66.73C375.29 65.63 376.786 64.068 377.886 62.044C378.986 59.976 379.536 57.578 379.536 54.85ZM398.86 30.958C397.716 30.958 396.748 30.562 395.956 29.77C395.164 28.978 394.768 28.01 394.768 26.866C394.768 25.722 395.164 24.754 395.956 23.962C396.748 23.17 397.716 22.774 398.86 22.774C399.96 22.774 400.884 23.17 401.632 23.962C402.424 24.754 402.82 25.722 402.82 26.866C402.82 28.01 402.424 28.978 401.632 29.77C400.884 30.562 399.96 30.958 398.86 30.958ZM401.764 36.832V73H395.758V36.832H401.764ZM409.756 54.85C409.756 51.11 410.504 47.854 412 45.082C413.496 42.266 415.564 40.088 418.204 38.548C420.888 37.008 423.946 36.238 427.378 36.238C431.822 36.238 435.474 37.316 438.334 39.472C441.238 41.628 443.152 44.62 444.076 48.448H437.608C436.992 46.248 435.782 44.51 433.978 43.234C432.218 41.958 430.018 41.32 427.378 41.32C423.946 41.32 421.174 42.508 419.062 44.884C416.95 47.216 415.894 50.538 415.894 54.85C415.894 59.206 416.95 62.572 419.062 64.948C421.174 67.324 423.946 68.512 427.378 68.512C430.018 68.512 432.218 67.896 433.978 66.664C435.738 65.432 436.948 63.672 437.608 61.384H444.076C443.108 65.08 441.172 68.05 438.268 70.294C435.364 72.494 431.734 73.594 427.378 73.594C423.946 73.594 420.888 72.824 418.204 71.284C415.564 69.744 413.496 67.566 412 64.75C410.504 61.934 409.756 58.634 409.756 54.85ZM459.416 41.782V63.1C459.416 64.86 459.79 66.114 460.538 66.862C461.286 67.566 462.584 67.918 464.432 67.918H468.854V73H463.442C460.098 73 457.59 72.23 455.918 70.69C454.246 69.15 453.41 66.62 453.41 63.1V41.782H448.724V36.832H453.41V27.724H459.416V36.832H468.854V41.782H459.416Z" fill="#E45858"/>
<path d="M526.875 67H513.712C511.762 67 509.975 66.25 508.512 65.05L487.875 46L499.25 34C499.25 39.85 505.912 46 512.25 46H513.875C513.712 52.75 516.475 57.7 523.625 59.8C524.113 59.95 524.437 60.1 524.925 60.1C526.875 60.55 528.175 62.5 527.688 64.3L526.875 67Z" stroke="black" stroke-width="2" stroke-miterlimit="10" stroke-linecap="round" stroke-linejoin="round"/>
<path d="M484.625 49L506.887 69.55C508.187 70.75 510.137 71.5 512.087 71.5H526.875" stroke="black" stroke-width="2" stroke-miterlimit="10" stroke-linecap="round" stroke-linejoin="round"/>
<path d="M500.062 50.5C501.409 50.5 502.5 49.4926 502.5 48.25C502.5 47.0074 501.409 46 500.062 46C498.716 46 497.625 47.0074 497.625 48.25C497.625 49.4926 498.716 50.5 500.062 50.5Z" stroke="black" stroke-width="2" stroke-miterlimit="10" stroke-linecap="round" stroke-linejoin="round"/>
<path d="M507.375 53.5H514.688" stroke="black" stroke-width="2" stroke-miterlimit="10" stroke-linecap="round" stroke-linejoin="round"/>
<path d="M510.625 58H519.562" stroke="black" stroke-width="2" stroke-miterlimit="10" stroke-linecap="round" stroke-linejoin="round"/>
<path d="M528.5 26.5L516.637 37.45C513.875 40 512.9 43.6 513.875 47.05" stroke="black" stroke-width="2" stroke-miterlimit="10" stroke-linecap="round" stroke-linejoin="round"/>
<path d="M499.25 35.5C502.337 34.6 505.1 32.5 506.725 29.95L509 26.5" stroke="black" stroke-width="2" stroke-miterlimit="10" stroke-linecap="round" stroke-linejoin="round"/>
<line x1="0.986213" y1="80.4118" x2="528.987" y2="77.5" stroke="black" stroke-width="5"/>
</svg>
